<svg width="500" height="280" viewBox="0 0 500 280" xmlns="http://www.w3.org/2000/svg">
  <!-- 例14图：倒过来的共角——大三角形套小三角形 -->
  <text x="10" y="20" font-size="13" fill="#666">【例14图：三角形ADE在三角形ABC外部（延长线情况）】</text>

  <!-- 大三角形 ABC -->
  <polygon points="250,50 60,220 440,220" fill="#e3f2fd" stroke="#1565c0" stroke-width="2.5"/>
  <text x="245" y="38" font-size="14" fill="#1565c0" font-weight="bold">A</text>
  <text x="40" y="238" font-size="14" fill="#1565c0">B</text>
  <text x="448" y="238" font-size="14" fill="#1565c0">C</text>

  <!-- AB延长线 -->
  <line x1="60" y1="220" x2="20" y2="220" stroke="#868e96" stroke-width="1.5" stroke-dasharray="4,3"/>
  <line x1="250" y1="50" x2="20" y2="220" stroke="#868e96" stroke-width="1.5" stroke-dasharray="4,3"/>
  <text x="15" y="215" font-size="11" fill="#868e96">D在AB延长线上</text>

  <!-- AC延长线 -->
  <line x1="440" y1="220" x2="480" y2="220" stroke="#868e96" stroke-width="1.5" stroke-dasharray="4,3"/>
  <line x1="250" y1="50" x2="480" y2="220" stroke="#868e96" stroke-width="1.5" stroke-dasharray="4,3"/>
  <text x="465" y="215" font-size="11" fill="#868e96">E在AC延长线上</text>

  <!-- 小三角形 ADE（在外部） -->
  <polygon points="250,50 120,135 400,135" fill="#f3e5f5" stroke="#7b1fa2" stroke-width="2" stroke-dasharray="4,3"/>
  <text x="105" y="142" font-size="14" fill="#7b1fa2">D</text>
  <text x="415" y="142" font-size="14" fill="#7b1fa2">E</text>

  <!-- 标注：共角A -->
  <path d="M 245 55 Q 230 70 245 80" fill="none" stroke="#e64980" stroke-width="2"/>
  <text x="215" y="75" font-size="11" fill="#e64980">∠A共用</text>

  <!-- 边长比 -->
  <text x="165" y="90" font-size="11" fill="#1565c0">AD=3</text>
  <text x="155" y="105" font-size="11" fill="#1565c0">AB=12</text>
  <text x="350" y="90" font-size="11" fill="#1565c0">AE=4</text>
  <text x="340" y="105" font-size="11" fill="#1565c0">AC=16</text>

  <!-- 公式 -->
  <rect x="100" y="250" width="300" height="28" rx="6" fill="#fff0f6" stroke="#e64980" stroke-width="1.5"/>
  <text x="250" y="269" font-size="12" fill="#c92a6b" text-anchor="middle" font-weight="bold">S<sub>ADE</sub>÷S<sub>ABC</sub> = (3÷12)×(4÷16) = 1/16</text>
</svg>